<?xml version="1.0" encoding="utf-8"?>
<!-- Generator: Adobe Illustrator 26.3.1, SVG Export Plug-In . SVG Version: 6.00 Build 0)  -->
<svg version="1.1" id="Layer_1" xmlns="http://www.w3.org/2000/svg" xmlns:xlink="http://www.w3.org/1999/xlink" x="0px" y="0px"
	 viewBox="0 0 147 41.6" style="enable-background:new 0 0 147 41.6;" xml:space="preserve">
<style type="text/css">
	.st0{fill:#E11F26;}
	.st1{fill:#181617;}
</style>
<g>
	<g>
		<polygon class="st0" points="94.2,7.3 94.2,36.5 84.3,40.7 84.3,7.3 		"/>
		<polygon class="st0" points="68.7,36.5 68.7,7.3 78.6,7.3 78.6,40.7 		"/>
		<g>
			<g>
				<path class="st1" d="M0.1,36.8L2.5,33c0.9,0.9,2.1,1.7,3.6,2.4c1.5,0.7,3,1,4.5,1c1.5,0,2.7-0.3,3.5-0.9
					c0.8-0.6,1.2-1.4,1.2-2.3c0-0.6-0.3-1.2-0.8-1.6c-0.5-0.4-1.2-0.7-2.1-1c-0.9-0.2-1.8-0.5-2.8-0.7c-1-0.3-2.1-0.5-3.1-0.8
					c-1-0.3-2-0.7-2.9-1.2c-0.8-0.5-1.5-1.2-2.1-2.1c-0.5-0.9-0.8-2-0.8-3.2c0-2,0.8-3.8,2.5-5.2c1.7-1.4,4-2.1,6.9-2.1
					c3.7,0,6.8,1.1,9.3,3.4l-2.2,3.7c-0.7-0.9-1.8-1.6-3-2.1c-1.3-0.5-2.6-0.8-4.1-0.8c-1.4,0-2.4,0.3-3.2,0.8s-1.2,1.3-1.2,2.1
					c0,0.5,0.2,0.9,0.6,1.3c0.4,0.4,1,0.6,1.7,0.8c0.7,0.2,1.5,0.4,2.3,0.6c0.9,0.2,1.8,0.4,2.6,0.6c0.9,0.2,1.8,0.5,2.7,0.9
					c0.9,0.4,1.7,0.8,2.3,1.4c0.7,0.5,1.2,1.2,1.6,2.1c0.4,0.9,0.6,1.9,0.6,3c0,2.2-0.9,4-2.6,5.4c-1.8,1.4-4.2,2.1-7.4,2.1
					c-2.1,0-4-0.3-5.8-1C2.8,38.9,1.3,38,0.1,36.8z"/>
				<path class="st1" d="M22.7,20.4v-4.5h4V9.3h5.2v6.6h4.9v4.5h-4.9v12.6c0,0.8,0.2,1.5,0.6,2.1c0.4,0.5,1,0.8,1.7,0.8
					c0.5,0,0.9-0.1,1.4-0.3c0.4-0.2,0.8-0.4,1-0.6l1.2,3.9c-1.1,1-2.7,1.6-4.9,1.6c-2,0-3.5-0.5-4.6-1.6c-1-1.1-1.6-2.6-1.6-4.6
					V20.4H22.7z"/>
				<path class="st1" d="M40,27.9c0-2.3,0.5-4.4,1.5-6.3s2.5-3.4,4.3-4.6c1.9-1.1,4-1.7,6.3-1.7c3.5,0,6.4,1.2,8.6,3.7
					c2.2,2.5,3.2,5.6,3.2,9.4v1.2H45.4c0.2,1.9,1,3.5,2.3,4.7c1.4,1.3,3.1,1.9,5.3,1.9c1.2,0,2.5-0.2,3.7-0.7
					c1.3-0.5,2.3-1.1,3.1-1.9l2.3,3.4c-1.2,1.1-2.6,2-4.3,2.6c-1.7,0.6-3.5,0.9-5.4,0.9c-3.6,0-6.6-1.2-9-3.5
					C41.1,34.7,40,31.7,40,27.9z M45.3,26h13.5c0-0.7-0.2-1.5-0.4-2.2c-0.3-0.7-0.7-1.4-1.2-2.1c-0.5-0.6-1.2-1.2-2.1-1.6
					c-0.9-0.4-1.9-0.6-3-0.6c-1.1,0-2,0.2-2.9,0.6c-0.9,0.4-1.6,0.9-2.1,1.5c-0.5,0.6-0.9,1.3-1.2,2C45.6,24.5,45.4,25.2,45.3,26z"
					/>
				<path class="st1" d="M99.2,32.5c0-1.3,0.3-2.5,0.7-3.5c0.5-1,1.1-1.8,1.9-2.5c0.8-0.6,1.7-1.1,2.7-1.4c1-0.3,1.9-0.5,3-0.5
					c3.4,0,6,1,7.8,3.1v-3.5c0-1.4-0.5-2.5-1.6-3.2c-1-0.8-2.4-1.2-4.1-1.2c-2.7,0-5.1,1-7.1,3l-2.1-3.6c2.7-2.6,6.1-3.9,10.1-3.9
					c1.4,0,2.7,0.2,3.8,0.5c1.2,0.3,2.2,0.8,3.1,1.5c0.9,0.6,1.7,1.6,2.2,2.7c0.5,1.2,0.8,2.5,0.8,4.1v15.9h-5.2v-2.6
					c-0.9,1-2,1.8-3.4,2.4c-1.3,0.6-2.8,0.8-4.4,0.8c-1,0-2-0.2-2.9-0.5c-1-0.3-1.9-0.8-2.7-1.5c-0.8-0.6-1.5-1.5-1.9-2.5
					C99.4,35,99.2,33.8,99.2,32.5z M104.4,32.6c0,1.3,0.5,2.3,1.4,3.1c1,0.8,2.2,1.2,3.7,1.2c1.2,0,2.3-0.2,3.3-0.6
					c1-0.4,1.8-1,2.4-1.8v-3.6c-0.6-0.8-1.4-1.4-2.4-1.8c-1-0.4-2.1-0.6-3.3-0.6c-1.5,0-2.7,0.4-3.7,1.2
					C104.9,30.3,104.4,31.3,104.4,32.6z"/>
				<path class="st1" d="M127.2,39.9v-24h5.2v3.5c1-1.2,2.1-2.2,3.5-2.9c1.4-0.8,2.8-1.1,4.3-1.1v5.2c-0.4-0.1-1-0.1-1.7-0.1
					c-1.1,0-2.3,0.3-3.5,1c-1.2,0.6-2.1,1.4-2.6,2.2v16.4H127.2z"/>
			</g>
		</g>
		<rect x="90.6" y="0.2" class="st0" width="3.6" height="3.6"/>
		<rect x="97.8" y="0.2" class="st0" width="3.6" height="3.6"/>
		<rect x="97.8" y="7.3" class="st0" width="3.6" height="3.6"/>
	</g>
	<g>
		<g>
			<path class="st1" d="M144.7,18.5l-0.5-0.7c-0.1,0-0.1,0-0.1,0h-0.5v0.7h-0.3v-2.2h0.8c0.3,0,0.5,0.1,0.7,0.2
				c0.2,0.1,0.2,0.3,0.2,0.6c0,0.2,0,0.3-0.1,0.4c-0.1,0.1-0.2,0.2-0.4,0.3l0.5,0.7L144.7,18.5L144.7,18.5z M144.5,17.4
				c0.1-0.1,0.2-0.2,0.2-0.4s-0.1-0.3-0.2-0.4c-0.1-0.1-0.3-0.1-0.4-0.1h-0.5v1h0.5C144.3,17.5,144.4,17.5,144.5,17.4z"/>
		</g>
		<g>
			<path class="st1" d="M144,19.6c-1.2,0-2.2-1-2.2-2.2c0-1.2,1-2.2,2.2-2.2c1.2,0,2.2,1,2.2,2.2S145.2,19.6,144,19.6z M144,15.5
				c-1,0-1.9,0.8-1.9,1.9c0,1,0.8,1.9,1.9,1.9c1,0,1.9-0.8,1.9-1.9C145.9,16.4,145,15.5,144,15.5z"/>
		</g>
	</g>
</g>
</svg>
