<svg xmlns="http://www.w3.org/2000/svg" viewBox="0 0 48 32">
  <path fill="#6A696A" fill-rule="evenodd" d="M36.416 31.504v-4.052c3.929 0 7.109-3.189 7.109-7.127 0-3.939-3.18-7.128-7.109-7.128H8.619l6.36 6.039-.823.901-1.833 2.733L.576 11.133 12.323.18l3.597 2.963-7.301 5.965h27.797c6.136 0 11.149 5.064 11.149 11.217 0 6.151-5.013 11.179-11.149 11.179Zm-9.802-.038h-2.057v-4.052h2.057v4.052Zm4.078 0h-2.057v-4.052h2.057v4.052Zm5.762-14.986c2.335 0 4.227 1.466 4.227 3.806 0 2.341-1.892 4.24-4.227 4.24-2.335 0-4.228-1.899-4.228-4.24 0-2.34 1.893-3.806 4.228-3.806Zm-1.721 14.986h-2.058v-4.052h2.058v4.052Z"/>
</svg>
